<svg id="Fill_Outline" height="512" viewBox="0 0 64 64" width="512" xmlns="http://www.w3.org/2000/svg" data-name="Fill Outline"><path d="m55 9v-6h6z" fill="#c4f236"/><ellipse cx="55" cy="18" fill="#4891d3" rx="4" ry="2"/><path d="m9 38h4v3h-4z" fill="#e59730"/><path d="m16 40h-10a3 3 0 0 0 -3 3v4.89a2.07 2.07 0 0 0 1.66 2.11 2 2 0 0 0 2.34-2v10.89a2.07 2.07 0 0 0 1.66 2.11 2 2 0 0 0 2.34-2 2 2 0 0 0 2.34 2 2.07 2.07 0 0 0 1.66-2.11v-10.89a2 2 0 0 0 2.34 2 2.07 2.07 0 0 0 1.66-2.11v-4.89a3 3 0 0 0 -3-3z" fill="#57b7eb"/><path d="m13 51a4 4 0 0 1 -4-4v-7h-3a3 3 0 0 0 -3 3v4.89a2.07 2.07 0 0 0 1.66 2.11 2 2 0 0 0 2.34-2v10.89a2.07 2.07 0 0 0 1.66 2.11 2 2 0 0 0 2.34-2 2 2 0 0 0 2.34 2 2.07 2.07 0 0 0 1.66-2.11v-7.89z" fill="#4891d3"/><path d="m7 58.89a2.07 2.07 0 0 0 1.66 2.11 2 2 0 0 0 2.34-2 2 2 0 0 0 2.34 2 2.07 2.07 0 0 0 1.66-2.11v-1.89h-8z" fill="#fcbc04"/><path d="m11 44-3-4h6z" fill="#f9e109"/><path d="m8 35v2a3 3 0 0 0 6 0v-2z" fill="#f9e109"/><path d="m6 31h8a2 2 0 0 1 2 2 2 2 0 0 1 -2 2h-6a2 2 0 0 1 -2-2v-2a0 0 0 0 1 0 0z" fill="#a1d51c"/><path d="m10 37v-1h4v-1h-6v2a3 3 0 0 0 4 2.82 3 3 0 0 1 -2-2.82z" fill="#fcbc04"/><path d="m8 31h6a2 2 0 0 1 2 2 0 0 0 0 1 0 0h-6a2 2 0 0 1 -2-2 0 0 0 0 1 0 0z" fill="#c4f236"/><path d="m15 43a2 2 0 0 1 2 2v5a0 0 0 0 1 0 0 2 2 0 0 1 -2-2v-5a0 0 0 0 1 0 0z" fill="#4891d3"/><path d="m7 43a0 0 0 0 1 0 0v5a2 2 0 0 1 -2 2 0 0 0 0 1 0 0v-5a2 2 0 0 1 2-2z" fill="#2d72bc"/><path d="m11 51a0 0 0 0 1 0 0v6a0 0 0 0 1 0 0h-2a0 0 0 0 1 0 0v-4a2 2 0 0 1 2-2z" fill="#2d72bc"/><path d="m9 57h2a0 0 0 0 1 0 0v2a2 2 0 0 1 -2 2 0 0 0 0 1 0 0v-4a0 0 0 0 1 0 0z" fill="#e59730"/><path d="m55 16c-2 0-3.59.71-3.93 1.65a6.26 6.26 0 0 1 2.93-.65c2.21 0 4 .9 4 2a1 1 0 0 1 -.07.35 1.69 1.69 0 0 0 1.07-1.35c0-1.1-1.79-2-4-2z" fill="#2d72bc"/><path d="m59.41 4.59a2 2 0 0 1 -3.41-1.42v-.17h-1v6z" fill="#a1d51c"/><path d="m14 60a2 2 0 0 1 -2-2v-1h-1v2a2 2 0 0 0 3.82.82 2 2 0 0 1 -.82.18z" fill="#e59730"/><path d="m10 60a2 2 0 0 1 -2-2v-1h-1v2a2 2 0 0 0 3.82.82 2 2 0 0 1 -.82.18z" fill="#e59730"/><g fill="#39519d"><path d="m54 17.08a1 1 0 0 0 1 .92 1 1 0 0 0 1-1v-7.59l5.71-5.7a1 1 0 0 0 .21-1.09 1 1 0 0 0 -.92-.62h-6a1 1 0 0 0 -1 1v12.06c-2.34.26-4 1.44-4 2.94 0 1.71 2.15 3 5 3s5-1.29 5-3a1 1 0 0 0 -2 0c0 .25-1.06 1-3 1s-3-.75-3-1 .71-.73 2-.92zm2-10.49v-2.59h2.59z"/><path d="m16 39h-1.56a3.91 3.91 0 0 0 .56-2v-2a1 1 0 0 0 -1-1h-6a1 1 0 0 1 -1-1v-1h7a1 1 0 0 0 0-2h-8a1 1 0 0 0 -1 1v2a3 3 0 0 0 2 2.82v1.18a3.91 3.91 0 0 0 .56 2h-1.56a4 4 0 0 0 -4 4v4.89a1 1 0 0 0 2 0v-4.89a2 2 0 0 1 2-2h1.5l2.5 3.33v2.67h-2v-3a1 1 0 0 0 -2 0v14.89a3.09 3.09 0 0 0 2.5 3.11 2.81 2.81 0 0 0 .5 0 3 3 0 0 0 1.94-.71h.06.06a3 3 0 0 0 2.44.71 3.09 3.09 0 0 0 2.5-3.11v-8.06a3.16 3.16 0 0 0 1.5.13 3.09 3.09 0 0 0 2.5-3.07v-4.89a4 4 0 0 0 -4-4zm-3-3v1a2 2 0 0 1 -4 0v-1zm-1 5-1 1.33-1-1.33zm2 15h-2v-4a1 1 0 0 0 -2 0v4h-2v-7h6zm-4.35 3.76a1.06 1.06 0 0 1 -.83.23 1.09 1.09 0 0 1 -.82-1.1v-.89h2v1a1 1 0 0 1 -.35.76zm3.53.23a1 1 0 0 1 -.83-.23 1 1 0 0 1 -.35-.76v-1h2v.89a1.09 1.09 0 0 1 -.82 1.11zm4.82-12.1a1.09 1.09 0 0 1 -.82 1.1 1 1 0 0 1 -.83-.23 1 1 0 0 1 -.35-.76v-4a1 1 0 0 0 -2 0v3h-2v-2.67l2.5-3.33h1.5a2 2 0 0 1 2 2z"/><path d="m28.71 55h-2a1 1 0 0 0 0 2h2a1 1 0 1 0 0-2z"/><path d="m25.72 30.32a7.51 7.51 0 0 1 -.55-1.68 1 1 0 0 0 -2 .41 10 10 0 0 0 .69 2.11 1 1 0 0 0 .91.58 1.06 1.06 0 0 0 .42-.09 1 1 0 0 0 .53-1.33z"/><path d="m34.71 55h-2a1 1 0 0 0 0 2h2a1 1 0 1 0 0-2z"/><path d="m27.44 20.93a1 1 0 0 0 .61-.22 8.45 8.45 0 0 1 1.51-.94 1 1 0 1 0 -.86-1.77 9.85 9.85 0 0 0 -1.88 1.17 1 1 0 0 0 -.17 1.4 1 1 0 0 0 .79.36z"/><path d="m34.71 35h-2a1 1 0 0 0 -1 1 1 1 0 0 0 1 1h2a1 1 0 1 0 0-2z"/><path d="m24 25.85a.85.85 0 0 0 .23 0 1 1 0 0 0 1-.77 8.27 8.27 0 0 1 .61-1.66 1 1 0 0 0 -.45-1.34 1 1 0 0 0 -1.34.45 9.6 9.6 0 0 0 -.76 2.08 1 1 0 0 0 .71 1.24z"/><path d="m28.42 35.89a.91.91 0 0 0 .45.11 1 1 0 0 0 .46-1.89 8 8 0 0 1 -1.47-1 1 1 0 0 0 -1.29 1.53 9.92 9.92 0 0 0 1.85 1.25z"/><path d="m47 17h-2a1 1 0 0 0 0 2h2a1 1 0 0 0 0-2z"/><path d="m44.71 37h.29a8.81 8.81 0 0 1 1.54.13h.17a1 1 0 0 0 .17-2 10.76 10.76 0 0 0 -1.88-.13h-.29a1 1 0 0 0 0 2z"/><path d="m51.27 52.45a8.46 8.46 0 0 1 -1.41 1.12 1 1 0 0 0 .55 1.84 1 1 0 0 0 .54-.16 11.18 11.18 0 0 0 1.72-1.36 1 1 0 1 0 -1.4-1.44z"/><path d="m46.54 54.87c-.54.13-1.05.13-1.54.13h-.29a1 1 0 0 0 0 2h.29a10.73 10.73 0 0 0 1.87-.16 1 1 0 0 0 -.34-2z"/><path d="m51 36.75a1 1 0 1 0 -1.08 1.68 8.82 8.82 0 0 1 1.4 1.12 1 1 0 1 0 1.4-1.44 11.18 11.18 0 0 0 -1.72-1.36z"/><path d="m41 17h-2a1 1 0 0 0 0 2h2a1 1 0 0 0 0-2z"/><path d="m55.13 41.72a1 1 0 0 0 -1.31-.53 1 1 0 0 0 -.53 1.31 8.47 8.47 0 0 1 .53 1.71 1 1 0 0 0 1 .8.68.68 0 0 0 .2 0 1 1 0 0 0 .78-1.17 10.22 10.22 0 0 0 -.67-2.12z"/><path d="m55 47a1 1 0 0 0 -1.18.78 8.47 8.47 0 0 1 -.53 1.71 1 1 0 0 0 .53 1.32 1.07 1.07 0 0 0 .39.07 1 1 0 0 0 .93-.61 10.85 10.85 0 0 0 .64-2.1 1 1 0 0 0 -.78-1.17z"/><path d="m40.71 35h-2a1 1 0 0 0 0 2h2a1 1 0 1 0 0-2z"/><path d="m35 17h-2a1 1 0 0 0 0 2h2a1 1 0 0 0 0-2z"/><path d="m40.71 55h-2a1 1 0 0 0 0 2h2a1 1 0 1 0 0-2z"/><path d="m47 45a1 1 0 0 0 0-2 3 3 0 0 0 0 6 1 1 0 0 0 0-2 1 1 0 0 1 0-2z"/><path d="m35.71 24.29a1 1 0 0 0 -1.42 0l-1.29 1.3-1.29-1.3a1 1 0 0 0 -1.42 1.42l1.3 1.29-1.3 1.29a1 1 0 0 0 0 1.42 1 1 0 0 0 1.42 0l1.29-1.3 1.29 1.3a1 1 0 0 0 1.42 0 1 1 0 0 0 0-1.42l-1.3-1.29 1.3-1.29a1 1 0 0 0 0-1.42z"/><path d="m46 7a3 3 0 1 0 3 3 3 3 0 0 0 -3-3zm0 4a1 1 0 1 1 1-1 1 1 0 0 1 -1 1z"/><path d="m57.71 29.29a1 1 0 0 0 -1.42 0l-1.29 1.3-1.29-1.3a1 1 0 0 0 -1.42 1.42l1.3 1.29-1.3 1.29a1 1 0 0 0 0 1.42 1 1 0 0 0 1.42 0l1.29-1.3 1.29 1.3a1 1 0 0 0 1.42 0 1 1 0 0 0 0-1.42l-1.3-1.29 1.3-1.29a1 1 0 0 0 0-1.42z"/><path d="m33.29 48.71a1 1 0 0 0 1.42 0 1 1 0 0 0 0-1.42l-1.3-1.29 1.3-1.29a1 1 0 0 0 -1.42-1.42l-1.29 1.3-1.29-1.3a1 1 0 0 0 -1.42 1.42l1.3 1.29-1.3 1.29a1 1 0 0 0 0 1.42 1 1 0 0 0 1.42 0l1.29-1.3z"/><path d="m21 13a3 3 0 1 0 3 3 3 3 0 0 0 -3-3zm0 4a1 1 0 1 1 1-1 1 1 0 0 1 -1 1z"/></g></svg>