<svg xmlns="http://www.w3.org/2000/svg" width="301.794" height="64" viewBox="0 0 301.794 64">
  <g id="logo" transform="translate(-850 -607)">
    <g id="text" transform="translate(194.946 -289.628)">
      <path id="work" d="M13.056-10.438q-.374,1.394-.8,2.822t-.85,2.771q-.425,1.343-.816,2.5T9.928-.374a3.386,3.386,0,0,1-.952.459A4.827,4.827,0,0,1,7.514.272,4.656,4.656,0,0,1,5.8-.017a1.753,1.753,0,0,1-1-.867,16.342,16.342,0,0,1-.918-2.6q-.51-1.785-1.054-3.91t-1-4.318q-.459-2.193-.765-3.825a3.439,3.439,0,0,1,.935-.629A2.956,2.956,0,0,1,3.3-16.456a2.248,2.248,0,0,1,1.5.459,2.371,2.371,0,0,1,.714,1.479q.646,4.08,1.224,6.919T7.548-3.74h.136q.136-.578.459-1.7t.748-2.584q.425-1.462.918-3.128t1-3.366a4.6,4.6,0,0,1,1-.425,4.476,4.476,0,0,1,1.241-.153,3.518,3.518,0,0,1,1.547.306,1.541,1.541,0,0,1,.833.918q.51,1.632.969,3.2t.833,2.907q.374,1.343.663,2.4T18.36-3.74h.17q.578-2.822,1.207-5.882t1.071-6.324a3.709,3.709,0,0,1,.918-.374,3.944,3.944,0,0,1,1.02-.136,2.4,2.4,0,0,1,1.445.408,1.529,1.529,0,0,1,.561,1.326,9.417,9.417,0,0,1-.2,1.547q-.2,1.071-.527,2.448T23.307-7.8q-.391,1.547-.8,2.992t-.782,2.618Q21.352-1.02,21.08-.374a2.874,2.874,0,0,1-1.037.459A5.824,5.824,0,0,1,18.53.272q-2.142,0-2.55-1.054-.272-.748-.646-1.836T14.569-5q-.391-1.292-.782-2.686T13.056-10.438Zm30.668,2.38a10.027,10.027,0,0,1-.6,3.553,7.747,7.747,0,0,1-1.683,2.7A7.259,7.259,0,0,1,38.828-.085,9.41,9.41,0,0,1,35.394.51,9.41,9.41,0,0,1,31.96-.085a7.37,7.37,0,0,1-2.618-1.7,7.572,7.572,0,0,1-1.683-2.686,10.131,10.131,0,0,1-.595-3.587,10.027,10.027,0,0,1,.595-3.553,7.453,7.453,0,0,1,1.7-2.686A7.542,7.542,0,0,1,31.994-16a9.31,9.31,0,0,1,3.4-.6,9.31,9.31,0,0,1,3.4.6,7.426,7.426,0,0,1,2.635,1.717,7.623,7.623,0,0,1,1.7,2.7A9.924,9.924,0,0,1,43.724-8.058Zm-8.33-5.134a3.473,3.473,0,0,0-2.89,1.343A6.012,6.012,0,0,0,31.45-8.058,6.07,6.07,0,0,0,32.487-4.25a3.48,3.48,0,0,0,2.907,1.326A3.462,3.462,0,0,0,38.3-4.267a6.083,6.083,0,0,0,1.037-3.791,6.012,6.012,0,0,0-1.054-3.791A3.473,3.473,0,0,0,35.394-13.192ZM51.544-.034q-.306.068-.816.17a5.926,5.926,0,0,1-1.156.1A2.9,2.9,0,0,1,47.8-.2a1.857,1.857,0,0,1-.578-1.564V-12.546a2.636,2.636,0,0,1,.408-1.5,3.718,3.718,0,0,1,1.19-1.088,9.716,9.716,0,0,1,2.6-1.054,13.1,13.1,0,0,1,3.349-.408q3.23,0,3.23,2.006a2.64,2.64,0,0,1-.153.9,3.683,3.683,0,0,1-.323.7,9.313,9.313,0,0,0-1.938-.17,8.952,8.952,0,0,0-2.244.272,7.883,7.883,0,0,0-1.8.68Zm13.566,0q-.306.068-.816.17a5.926,5.926,0,0,1-1.156.1A2.9,2.9,0,0,1,61.37-.2a1.857,1.857,0,0,1-.578-1.564V-22.1a4.419,4.419,0,0,1,.8-.187,7.4,7.4,0,0,1,1.173-.085,2.9,2.9,0,0,1,1.768.442,1.857,1.857,0,0,1,.578,1.564v10.54l6.6-6.562a3.409,3.409,0,0,1,2.074.578,1.751,1.751,0,0,1,.782,1.462,2.03,2.03,0,0,1-.493,1.36,13.632,13.632,0,0,1-1.547,1.462L68.85-8.33l6.494,6.086A3.329,3.329,0,0,1,74.63-.391a2.091,2.091,0,0,1-1.666.663A2.533,2.533,0,0,1,71.587-.1a7.456,7.456,0,0,1-1.445-1.326L65.11-7Z" transform="translate(742 937)" fill="#4d4d4d"/>
      <path id="underscore" d="M.408,5.3a2.725,2.725,0,0,1-.289-.68A3.414,3.414,0,0,1,0,3.672,1.8,1.8,0,0,1,.442,2.346,1.608,1.608,0,0,1,1.632,1.9H16.184a4.614,4.614,0,0,1,.272.731,3.274,3.274,0,0,1,.136.935A1.693,1.693,0,0,1,16.133,4.9a1.749,1.749,0,0,1-1.207.408Z" transform="translate(818.952 937.324)" fill="#4d4d4d"/>
      <path id="smarter" d="M14.688-4.556A4.413,4.413,0,0,1,12.92-.833,8.442,8.442,0,0,1,7.752.51a14.423,14.423,0,0,1-2.533-.2A7.94,7.94,0,0,1,3.247-.289a3.621,3.621,0,0,1-1.292-.952A1.914,1.914,0,0,1,1.5-2.482,2.12,2.12,0,0,1,1.785-3.6a2.4,2.4,0,0,1,.765-.782A11.985,11.985,0,0,0,4.743-3.3a7.993,7.993,0,0,0,2.873.476,3.932,3.932,0,0,0,2.108-.459,1.438,1.438,0,0,0,.714-1.275q0-1.394-2.04-1.836l-1.9-.442A7.868,7.868,0,0,1,2.771-8.568a4.084,4.084,0,0,1-1.207-3.094,4.336,4.336,0,0,1,1.768-3.587A7.909,7.909,0,0,1,8.3-16.626a12.762,12.762,0,0,1,2.261.187,7.347,7.347,0,0,1,1.8.544,3.492,3.492,0,0,1,1.19.85,1.693,1.693,0,0,1,.425,1.139,2.061,2.061,0,0,1-.272,1.071,2.4,2.4,0,0,1-.646.731,4.7,4.7,0,0,0-.8-.408,10.127,10.127,0,0,0-1.088-.374,12.832,12.832,0,0,0-1.258-.289A7.4,7.4,0,0,0,8.6-13.294a4.223,4.223,0,0,0-2.074.425,1.326,1.326,0,0,0-.748,1.207,1.212,1.212,0,0,0,.425.952,3.451,3.451,0,0,0,1.479.612L9.35-9.69A8.455,8.455,0,0,1,13.43-7.8,4.359,4.359,0,0,1,14.688-4.556Zm27.4,4.522q-.272.068-.8.17a6,6,0,0,1-1.139.1A2.889,2.889,0,0,1,38.369-.2a1.887,1.887,0,0,1-.561-1.564v-8.84a2.4,2.4,0,0,0-.748-1.972,3.016,3.016,0,0,0-1.972-.612,4.22,4.22,0,0,0-1.581.306,4.581,4.581,0,0,0-1.343.816,4.532,4.532,0,0,1,.1.952V-.034q-.272.068-.8.17a6,6,0,0,1-1.139.1A2.889,2.889,0,0,1,28.543-.2a1.887,1.887,0,0,1-.561-1.564v-8.84A2.351,2.351,0,0,0,27.2-12.58a3.158,3.158,0,0,0-2.006-.612,4.359,4.359,0,0,0-1.564.272,8.6,8.6,0,0,0-1.19.544V-.034q-.306.068-.816.17a5.926,5.926,0,0,1-1.156.1A2.9,2.9,0,0,1,18.7-.2a1.857,1.857,0,0,1-.578-1.564V-12.682a2.367,2.367,0,0,1,.34-1.309,3.6,3.6,0,0,1,1.054-1A9.46,9.46,0,0,1,22.1-16.133a11.41,11.41,0,0,1,3.23-.459,7.446,7.446,0,0,1,5.032,1.666,9.491,9.491,0,0,1,2.261-1.19,8.6,8.6,0,0,1,3.009-.476,9.566,9.566,0,0,1,2.516.323A5.424,5.424,0,0,1,40.2-15.232a5.062,5.062,0,0,1,1.377,1.819,6.245,6.245,0,0,1,.51,2.635Zm10.676-2.72a8.074,8.074,0,0,0,1.8-.187A3.367,3.367,0,0,0,55.76-3.4V-7.174l-3.3.306a4.755,4.755,0,0,0-2.074.6,1.593,1.593,0,0,0-.714,1.445,1.8,1.8,0,0,0,.731,1.53A4.013,4.013,0,0,0,52.768-2.754Zm-.136-13.838a8.943,8.943,0,0,1,5.321,1.428,5.074,5.074,0,0,1,1.989,4.42V-2.89A1.919,1.919,0,0,1,59.534-1.6a4.24,4.24,0,0,1-1.02.85A8.264,8.264,0,0,1,56.1.17a14.776,14.776,0,0,1-3.332.34A9.524,9.524,0,0,1,47.413-.8a4.411,4.411,0,0,1-1.955-3.927A4.284,4.284,0,0,1,46.9-8.211,7.613,7.613,0,0,1,51.1-9.69l4.658-.476v-.612a2.114,2.114,0,0,0-.935-1.9,4.8,4.8,0,0,0-2.635-.612,10.349,10.349,0,0,0-2.584.323,12.06,12.06,0,0,0-2.244.8,2.216,2.216,0,0,1-.629-.731,2.031,2.031,0,0,1-.255-1,1.777,1.777,0,0,1,.323-1.105,2.772,2.772,0,0,1,1.037-.765,10.092,10.092,0,0,1,2.244-.612A15.9,15.9,0,0,1,52.632-16.592ZM68.476-.034q-.306.068-.816.17a5.926,5.926,0,0,1-1.156.1A2.9,2.9,0,0,1,64.736-.2a1.857,1.857,0,0,1-.578-1.564V-12.546a2.636,2.636,0,0,1,.408-1.5,3.718,3.718,0,0,1,1.19-1.088,9.716,9.716,0,0,1,2.6-1.054,13.1,13.1,0,0,1,3.349-.408q3.23,0,3.23,2.006a2.64,2.64,0,0,1-.153.9,3.682,3.682,0,0,1-.323.7,9.313,9.313,0,0,0-1.938-.17,8.952,8.952,0,0,0-2.244.272,7.883,7.883,0,0,0-1.8.68ZM81.974-5a1.793,1.793,0,0,0,.663,1.564,3.134,3.134,0,0,0,1.853.476,5.252,5.252,0,0,0,1.173-.136,6.264,6.264,0,0,0,1.071-.34,2.378,2.378,0,0,1,.459.663,2.065,2.065,0,0,1,.187.9,2,2,0,0,1-.918,1.683A5.14,5.14,0,0,1,83.5.476,6.714,6.714,0,0,1,79.271-.731a4.763,4.763,0,0,1-1.547-3.995V-20.332q.272-.068.8-.17a6,6,0,0,1,1.139-.1,2.821,2.821,0,0,1,1.751.442,1.887,1.887,0,0,1,.561,1.564v2.822h5a3.058,3.058,0,0,1,.306.714,3.222,3.222,0,0,1,.136.952,1.767,1.767,0,0,1-.408,1.292,1.47,1.47,0,0,1-1.088.408H81.974ZM93.942-6.12A4.034,4.034,0,0,0,95.71-3.6a6.072,6.072,0,0,0,3.2.782,7.883,7.883,0,0,0,2.635-.425,9.665,9.665,0,0,0,1.955-.9,2.243,2.243,0,0,1,.782.748,1.853,1.853,0,0,1,.306,1.02,1.785,1.785,0,0,1-.459,1.207,3.741,3.741,0,0,1-1.258.9,7.884,7.884,0,0,1-1.887.578,12.735,12.735,0,0,1-2.346.2,11.618,11.618,0,0,1-3.655-.544,7.46,7.46,0,0,1-2.822-1.649A7.659,7.659,0,0,1,90.321-4.42a10.071,10.071,0,0,1-.663-3.808A9.576,9.576,0,0,1,90.3-11.9a7.536,7.536,0,0,1,1.751-2.618,7.028,7.028,0,0,1,2.567-1.564,9.326,9.326,0,0,1,3.094-.51,8.588,8.588,0,0,1,3.06.527,7.017,7.017,0,0,1,2.38,1.462,6.676,6.676,0,0,1,1.547,2.244,7.131,7.131,0,0,1,.561,2.839,1.9,1.9,0,0,1-.493,1.428,2.465,2.465,0,0,1-1.377.612Zm3.774-7.242a3.816,3.816,0,0,0-2.788,1.105A4.678,4.678,0,0,0,93.67-9.112l7.548-1.122a3.787,3.787,0,0,0-.986-2.193A3.23,3.23,0,0,0,97.716-13.362Zm15.2,13.328q-.306.068-.816.17a5.926,5.926,0,0,1-1.156.1A2.9,2.9,0,0,1,109.174-.2a1.857,1.857,0,0,1-.578-1.564V-12.546a2.636,2.636,0,0,1,.408-1.5,3.718,3.718,0,0,1,1.19-1.088,9.716,9.716,0,0,1,2.6-1.054,13.1,13.1,0,0,1,3.349-.408q3.23,0,3.23,2.006a2.64,2.64,0,0,1-.153.9,3.682,3.682,0,0,1-.323.7,9.313,9.313,0,0,0-1.938-.17,8.952,8.952,0,0,0-2.244.272,7.883,7.883,0,0,0-1.8.68Z" transform="translate(837.474 937)" fill="#ba68c8"/>
    </g>
    <g id="icon" transform="translate(850 606.946)">
      <rect id="Rectangle_1" data-name="Rectangle 1" width="14" height="14" rx="2" transform="translate(2 22.024)" fill="#fff"/>
      <rect id="Rectangle_2" data-name="Rectangle 2" width="14" height="14" rx="2" transform="translate(25 22.024)" fill="#fff"/>
      <rect id="Rectangle_3" data-name="Rectangle 3" width="14" height="14" rx="2" transform="translate(48 22.024)" fill="#ce93d8"/>
      <path id="Path_1" data-name="Path 1" d="M14,22H9a2,2,0,0,1,2,2V34a2,2,0,0,1-2,2h5a2,2,0,0,0,2-2V24A2,2,0,0,0,14,22Z" transform="translate(0 0.024)" opacity="0.1"/>
      <path id="Path_2" data-name="Path 2" d="M37,22H32a2,2,0,0,1,2,2V34a2,2,0,0,1-2,2h5a2,2,0,0,0,2-2V24A2,2,0,0,0,37,22Z" transform="translate(0 0.024)" opacity="0.1"/>
      <path id="Path_3" data-name="Path 3" d="M60,22H54.57a2,2,0,0,1,2,2V34a2,2,0,0,1-2,2H60a2,2,0,0,0,2-2V24A2,2,0,0,0,60,22Z" transform="translate(0 0.024)" opacity="0.1"/>
      <g id="Group_1" data-name="Group 1" transform="translate(0 0.054)">
        <path id="Path_4" data-name="Path 4" d="M14,20H4a4,4,0,0,0-4,4V34a4,4,0,0,0,4,4H14a4,4,0,0,0,4-4V24A4,4,0,0,0,14,20ZM4,34V24H14V34Z" transform="translate(0 -0.027)" fill="#4d4d4d"/>
        <path id="Path_5" data-name="Path 5" d="M41,34V24a4,4,0,0,0-4-4H27a4,4,0,0,0-4,4V34a4,4,0,0,0,4,4H37A4,4,0,0,0,41,34ZM27,24H37V34H27Z" transform="translate(0 -0.027)" fill="#4d4d4d"/>
        <path id="Path_6" data-name="Path 6" d="M60,20H50a4,4,0,0,0-4,4V34a4,4,0,0,0,4,4H60a4,4,0,0,0,4-4V24A4,4,0,0,0,60,20ZM50,34V24H60V34Z" transform="translate(0 -0.027)" fill="#4d4d4d"/>
        <path id="Path_7" data-name="Path 7" d="M30.33,10.43a2.1,2.1,0,0,0-3.12.68,2,2,0,0,0,.9,2.68l4,2a2,2,0,0,0,2.49-.59l3-4a2,2,0,0,0-.4-2.8,2.09,2.09,0,0,0-3.08.77A14,14,0,0,0,7,14a2,2,0,1,0,4,0,10,10,0,0,1,19.33-3.57Z" transform="translate(0 -0.054)" fill="#4d4d4d"/>
        <path id="Path_8" data-name="Path 8" d="M57.6,42.8a2,2,0,0,0-2.49-.59l-4,2a2,2,0,0,0-.9,2.68,2.1,2.1,0,0,0,3.12.68A10,10,0,0,1,34,44a2,2,0,0,0-4,0,14,14,0,0,0,27.12,4.83,2.09,2.09,0,0,0,3.08.77,2,2,0,0,0,.4-2.8Z" fill="#4d4d4d"/>
        <path id="Path_9" data-name="Path 9" d="M52.59,15.41a2,2,0,0,0,2.61.19l8-6a2,2,0,0,0-2.4-3.2l-6.61,5L52.41,9.59a2,2,0,0,0-2.82,2.82Z" transform="translate(0 -0.054)" fill="#4d4d4d"/>
        <path id="Path_10" data-name="Path 10" d="M14.2,45.4l-4-3a2,2,0,0,0-2.4,0l-4,3a2,2,0,0,0-.4,2.8C4.37,49.52,6,49,7,48v6a2,2,0,0,0,4,0V48c1,1,2.63,1.52,3.6.2A2,2,0,0,0,14.2,45.4Z" transform="translate(0 0)" fill="#4d4d4d"/>
      </g>
      <circle id="Ellipse_1" data-name="Ellipse 1" cx="2" cy="2" r="2" transform="translate(7 60.054)" fill="#ba68c8"/>
    </g>
  </g>
</svg>
