<svg xmlns="http://www.w3.org/2000/svg" width="269.965" height="64" viewBox="0 0 269.965 64">
  <g id="logo" transform="translate(-850 -607)">
    <g id="text" transform="translate(17.008 132.056)">
      <path id="work" d="M13.157-8.96q-.379,1.413-.81,2.86t-.862,2.809q-.431,1.361-.827,2.533t-.672,2a3.432,3.432,0,0,1-.965.465A4.893,4.893,0,0,1,7.54,1.9,4.72,4.72,0,0,1,5.8,1.6,1.777,1.777,0,0,1,4.783.724a16.564,16.564,0,0,1-.93-2.636Q3.335-3.722,2.784-5.876T1.767-10.252Q1.3-12.475.992-14.129a3.486,3.486,0,0,1,.948-.638,3,3,0,0,1,1.327-.293,2.279,2.279,0,0,1,1.516.465,2.4,2.4,0,0,1,.724,1.5Q6.161-8.96,6.747-6.082t.827,3.911h.138q.138-.586.465-1.723t.758-2.619q.431-1.482.93-3.17T10.882-13.1a4.661,4.661,0,0,1,1.017-.431,4.537,4.537,0,0,1,1.258-.155,3.565,3.565,0,0,1,1.568.31,1.562,1.562,0,0,1,.844.93q.517,1.654.982,3.239T17.4-6.255q.379,1.361.672,2.43t.465,1.654h.172q.586-2.86,1.223-5.962t1.086-6.41a3.76,3.76,0,0,1,.93-.379,4,4,0,0,1,1.034-.138,2.429,2.429,0,0,1,1.465.414,1.549,1.549,0,0,1,.569,1.344,9.545,9.545,0,0,1-.207,1.568q-.207,1.086-.534,2.481t-.724,2.964q-.4,1.568-.81,3.033T21.945-.6Q21.566.586,21.29,1.241a2.913,2.913,0,0,1-1.051.465,5.9,5.9,0,0,1-1.534.19q-2.171,0-2.585-1.068-.276-.758-.655-1.861T14.69-3.446q-.4-1.31-.793-2.722T13.157-8.96ZM44.241-6.548a10.163,10.163,0,0,1-.6,3.6,7.853,7.853,0,0,1-1.706,2.74,7.358,7.358,0,0,1-2.654,1.74,9.537,9.537,0,0,1-3.481.6,9.537,9.537,0,0,1-3.481-.6A7.47,7.47,0,0,1,29.664-.19a7.675,7.675,0,0,1-1.706-2.722,10.269,10.269,0,0,1-.6-3.636,10.163,10.163,0,0,1,.6-3.6,7.554,7.554,0,0,1,1.723-2.722,7.645,7.645,0,0,1,2.671-1.723,9.437,9.437,0,0,1,3.446-.6,9.437,9.437,0,0,1,3.446.6,7.527,7.527,0,0,1,2.671,1.74,7.726,7.726,0,0,1,1.723,2.74A10.059,10.059,0,0,1,44.241-6.548Zm-8.443-5.2a3.521,3.521,0,0,0-2.929,1.361A6.093,6.093,0,0,0,31.8-6.548a6.152,6.152,0,0,0,1.051,3.86A3.527,3.527,0,0,0,35.8-1.344a3.509,3.509,0,0,0,2.946-1.361A6.165,6.165,0,0,0,39.8-6.548a6.093,6.093,0,0,0-1.068-3.842A3.521,3.521,0,0,0,35.8-11.751ZM52.167,1.585q-.31.069-.827.172a6.007,6.007,0,0,1-1.172.1,2.94,2.94,0,0,1-1.792-.448,1.882,1.882,0,0,1-.586-1.585V-11.1a2.672,2.672,0,0,1,.414-1.516,3.768,3.768,0,0,1,1.206-1.1,9.848,9.848,0,0,1,2.636-1.068,13.278,13.278,0,0,1,3.394-.414q3.274,0,3.274,2.033a2.675,2.675,0,0,1-.155.913,3.732,3.732,0,0,1-.327.706,9.44,9.44,0,0,0-1.964-.172,9.073,9.073,0,0,0-2.274.276,7.99,7.99,0,0,0-1.826.689Zm13.75,0q-.31.069-.827.172a6.007,6.007,0,0,1-1.172.1,2.94,2.94,0,0,1-1.792-.448,1.882,1.882,0,0,1-.586-1.585V-20.78a4.479,4.479,0,0,1,.81-.19,7.5,7.5,0,0,1,1.189-.086,2.94,2.94,0,0,1,1.792.448,1.882,1.882,0,0,1,.586,1.585V-8.34L72.6-14.991a3.455,3.455,0,0,1,2.1.586,1.775,1.775,0,0,1,.793,1.482,2.057,2.057,0,0,1-.5,1.378,13.818,13.818,0,0,1-1.568,1.482L69.708-6.823,76.29-.655a3.374,3.374,0,0,1-.724,1.878,2.12,2.12,0,0,1-1.689.672,2.567,2.567,0,0,1-1.4-.379A7.557,7.557,0,0,1,71.018.172l-5.1-5.652Z" transform="translate(920 514)" fill="#4d4d4d"/>
      <path id="underscore" d="M14.779-3.126A4.473,4.473,0,0,1,12.987.647,8.557,8.557,0,0,1,7.749,2.009,14.619,14.619,0,0,1,5.182,1.8a8.048,8.048,0,0,1-2-.6A3.67,3.67,0,0,1,1.873.234a1.94,1.94,0,0,1-.465-1.258A2.149,2.149,0,0,1,1.7-2.161a2.433,2.433,0,0,1,.775-.793A12.147,12.147,0,0,0,4.7-1.851a8.1,8.1,0,0,0,2.912.482,3.986,3.986,0,0,0,2.137-.465,1.458,1.458,0,0,0,.724-1.292q0-1.413-2.068-1.861l-1.93-.448A7.975,7.975,0,0,1,2.7-7.193a4.14,4.14,0,0,1-1.223-3.136,4.4,4.4,0,0,1,1.792-3.636A8.016,8.016,0,0,1,8.3-15.36a12.935,12.935,0,0,1,2.292.19,7.447,7.447,0,0,1,1.826.551,3.539,3.539,0,0,1,1.206.862,1.716,1.716,0,0,1,.431,1.154,2.089,2.089,0,0,1-.276,1.086,2.43,2.43,0,0,1-.655.741,4.766,4.766,0,0,0-.81-.414,10.265,10.265,0,0,0-1.1-.379,13.006,13.006,0,0,0-1.275-.293,7.5,7.5,0,0,0-1.327-.121,4.281,4.281,0,0,0-2.1.431,1.344,1.344,0,0,0-.758,1.223,1.229,1.229,0,0,0,.431.965,3.5,3.5,0,0,0,1.5.62l1.689.414A8.57,8.57,0,0,1,13.5-6.417,4.418,4.418,0,0,1,14.779-3.126ZM42.555,1.457q-.276.069-.81.172a6.078,6.078,0,0,1-1.154.1,2.928,2.928,0,0,1-1.809-.448A1.912,1.912,0,0,1,38.213-.3V-9.26a2.437,2.437,0,0,0-.758-2,3.057,3.057,0,0,0-2-.62,4.277,4.277,0,0,0-1.6.31,4.644,4.644,0,0,0-1.361.827,4.594,4.594,0,0,1,.1.965V1.457q-.276.069-.81.172a6.078,6.078,0,0,1-1.154.1,2.928,2.928,0,0,1-1.809-.448A1.912,1.912,0,0,1,28.254-.3V-9.26a2.383,2.383,0,0,0-.793-2,3.2,3.2,0,0,0-2.033-.62,4.418,4.418,0,0,0-1.585.276,8.721,8.721,0,0,0-1.206.551V1.457q-.31.069-.827.172a6.007,6.007,0,0,1-1.172.1,2.94,2.94,0,0,1-1.792-.448A1.882,1.882,0,0,1,18.26-.3V-11.362a2.4,2.4,0,0,1,.345-1.327,3.654,3.654,0,0,1,1.068-1.017,9.588,9.588,0,0,1,2.619-1.154,11.565,11.565,0,0,1,3.274-.465,7.548,7.548,0,0,1,5.1,1.689,9.62,9.62,0,0,1,2.292-1.206,8.715,8.715,0,0,1,3.05-.482,9.7,9.7,0,0,1,2.55.327,5.5,5.5,0,0,1,2.085,1.051,5.13,5.13,0,0,1,1.4,1.844,6.33,6.33,0,0,1,.517,2.671ZM53.376-1.3a8.184,8.184,0,0,0,1.826-.19,3.413,3.413,0,0,0,1.206-.465V-5.78l-3.343.31a4.819,4.819,0,0,0-2.1.6A1.615,1.615,0,0,0,50.24-3.4a1.821,1.821,0,0,0,.741,1.551A4.068,4.068,0,0,0,53.376-1.3Zm-.138-14.026a9.064,9.064,0,0,1,5.393,1.447A5.143,5.143,0,0,1,60.647-9.4v7.961a1.945,1.945,0,0,1-.414,1.31A4.3,4.3,0,0,1,59.2.734a8.376,8.376,0,0,1-2.447.93,14.976,14.976,0,0,1-3.377.345A9.653,9.653,0,0,1,47.948.682,4.471,4.471,0,0,1,45.967-3.3a4.342,4.342,0,0,1,1.465-3.532,7.716,7.716,0,0,1,4.256-1.5l4.721-.482v-.62a2.143,2.143,0,0,0-.948-1.93,4.861,4.861,0,0,0-2.671-.62,10.489,10.489,0,0,0-2.619.327,12.224,12.224,0,0,0-2.274.81,2.246,2.246,0,0,1-.638-.741A2.058,2.058,0,0,1,47-12.6a1.8,1.8,0,0,1,.327-1.12,2.81,2.81,0,0,1,1.051-.775,10.229,10.229,0,0,1,2.274-.62A16.12,16.12,0,0,1,53.238-15.326ZM69.3,1.457q-.31.069-.827.172a6.007,6.007,0,0,1-1.172.1,2.94,2.94,0,0,1-1.792-.448A1.882,1.882,0,0,1,64.921-.3V-11.225a2.672,2.672,0,0,1,.414-1.516,3.768,3.768,0,0,1,1.206-1.1,9.848,9.848,0,0,1,2.636-1.068,13.278,13.278,0,0,1,3.394-.414q3.274,0,3.274,2.033a2.675,2.675,0,0,1-.155.913,3.733,3.733,0,0,1-.327.706,9.44,9.44,0,0,0-1.964-.172,9.073,9.073,0,0,0-2.274.276,7.99,7.99,0,0,0-1.826.689ZM82.978-3.574a1.817,1.817,0,0,0,.672,1.585,3.176,3.176,0,0,0,1.878.482,5.324,5.324,0,0,0,1.189-.138A6.349,6.349,0,0,0,87.8-1.989a2.41,2.41,0,0,1,.465.672,2.093,2.093,0,0,1,.19.913,2.029,2.029,0,0,1-.93,1.706,5.209,5.209,0,0,1-3,.672A6.8,6.8,0,0,1,80.239.751,4.827,4.827,0,0,1,78.671-3.3V-19.116q.276-.069.81-.172a6.077,6.077,0,0,1,1.154-.1,2.859,2.859,0,0,1,1.775.448,1.912,1.912,0,0,1,.569,1.585v2.86h5.066a3.1,3.1,0,0,1,.31.724,3.265,3.265,0,0,1,.138.965,1.791,1.791,0,0,1-.414,1.31,1.49,1.49,0,0,1-1.1.414h-4Z" transform="translate(1014.465 514.128)" fill="#b984c2"/>
      <path id="smart" d="M.414,5.238a2.762,2.762,0,0,1-.293-.689A3.46,3.46,0,0,1,0,3.584,1.825,1.825,0,0,1,.448,2.24a1.63,1.63,0,0,1,1.206-.448H16.4a4.676,4.676,0,0,1,.276.741,3.319,3.319,0,0,1,.138.948,1.716,1.716,0,0,1-.465,1.344,1.773,1.773,0,0,1-1.223.414Z" transform="translate(997.307 515.706)" fill="#4d4d4d"/>
    </g>
    <g id="icon" transform="translate(850 606.946)">
      <rect id="Rectangle_1" data-name="Rectangle 1" width="14" height="14" rx="2" transform="translate(2 22.024)" fill="#fff"/>
      <rect id="Rectangle_2" data-name="Rectangle 2" width="14" height="14" rx="2" transform="translate(25 22.024)" fill="#fff"/>
      <rect id="Rectangle_3" data-name="Rectangle 3" width="14" height="14" rx="2" transform="translate(48 22.024)" fill="#ce93d8"/>
      <path id="Path_1" data-name="Path 1" d="M14,22H9a2,2,0,0,1,2,2V34a2,2,0,0,1-2,2h5a2,2,0,0,0,2-2V24A2,2,0,0,0,14,22Z" transform="translate(0 0.024)" opacity="0.1"/>
      <path id="Path_2" data-name="Path 2" d="M37,22H32a2,2,0,0,1,2,2V34a2,2,0,0,1-2,2h5a2,2,0,0,0,2-2V24A2,2,0,0,0,37,22Z" transform="translate(0 0.024)" opacity="0.1"/>
      <path id="Path_3" data-name="Path 3" d="M60,22H54.57a2,2,0,0,1,2,2V34a2,2,0,0,1-2,2H60a2,2,0,0,0,2-2V24A2,2,0,0,0,60,22Z" transform="translate(0 0.024)" opacity="0.1"/>
      <g id="Group_1" data-name="Group 1" transform="translate(0 0.054)">
        <path id="Path_4" data-name="Path 4" d="M14,20H4a4,4,0,0,0-4,4V34a4,4,0,0,0,4,4H14a4,4,0,0,0,4-4V24A4,4,0,0,0,14,20ZM4,34V24H14V34Z" transform="translate(0 -0.027)" fill="#4d4d4d"/>
        <path id="Path_5" data-name="Path 5" d="M41,34V24a4,4,0,0,0-4-4H27a4,4,0,0,0-4,4V34a4,4,0,0,0,4,4H37A4,4,0,0,0,41,34ZM27,24H37V34H27Z" transform="translate(0 -0.027)" fill="#4d4d4d"/>
        <path id="Path_6" data-name="Path 6" d="M60,20H50a4,4,0,0,0-4,4V34a4,4,0,0,0,4,4H60a4,4,0,0,0,4-4V24A4,4,0,0,0,60,20ZM50,34V24H60V34Z" transform="translate(0 -0.027)" fill="#4d4d4d"/>
        <path id="Path_7" data-name="Path 7" d="M30.33,10.43a2.1,2.1,0,0,0-3.12.68,2,2,0,0,0,.9,2.68l4,2a2,2,0,0,0,2.49-.59l3-4a2,2,0,0,0-.4-2.8,2.09,2.09,0,0,0-3.08.77A14,14,0,0,0,7,14a2,2,0,1,0,4,0,10,10,0,0,1,19.33-3.57Z" transform="translate(0 -0.054)" fill="#4d4d4d"/>
        <path id="Path_8" data-name="Path 8" d="M57.6,42.8a2,2,0,0,0-2.49-.59l-4,2a2,2,0,0,0-.9,2.68,2.1,2.1,0,0,0,3.12.68A10,10,0,0,1,34,44a2,2,0,0,0-4,0,14,14,0,0,0,27.12,4.83,2.09,2.09,0,0,0,3.08.77,2,2,0,0,0,.4-2.8Z" fill="#4d4d4d"/>
        <path id="Path_9" data-name="Path 9" d="M52.59,15.41a2,2,0,0,0,2.61.19l8-6a2,2,0,0,0-2.4-3.2l-6.61,5L52.41,9.59a2,2,0,0,0-2.82,2.82Z" transform="translate(0 -0.054)" fill="#4d4d4d"/>
        <path id="Path_10" data-name="Path 10" d="M14.2,45.4l-4-3a2,2,0,0,0-2.4,0l-4,3a2,2,0,0,0-.4,2.8C4.37,49.52,6,49,7,48v6a2,2,0,0,0,4,0V48c1,1,2.63,1.52,3.6.2A2,2,0,0,0,14.2,45.4Z" transform="translate(0 0)" fill="#4d4d4d"/>
      </g>
      <circle id="Ellipse_1" data-name="Ellipse 1" cx="2" cy="2" r="2" transform="translate(7 60.054)" fill="#ce93d8"/>
    </g>
  </g>
</svg>
