<svg id="_x33_0" enable-background="new 0 0 64 64" height="512" viewBox="0 0 64 64" width="512" xmlns="http://www.w3.org/2000/svg"><g><g><g><path d="m51 42h-3-3-11c0-5.21 3.3-9.78 8.1-11.49.55-.19 1.12-.35 1.71-.47l.19-.04.71-2.14c-2.69-.59-4.71-2.99-4.71-5.86h-1c-.83 0-1.58-.34-2.12-.88s-.88-1.29-.88-2.12c0-.79.3-1.5.79-2.03l-.59-2.97h-32.2v47c0 .55.45 1 1 1h57v-20z" fill="#e6e9ed"/></g><g><path d="m40 54h16v4h-16z" fill="#69d6f4"/></g><g><path d="m56 46v4h-16v-4h8z" fill="#69d6f4"/></g><g><path d="m16 32 12.12 7c-2.42 4.19-6.94 7-12.12 7-5.09 0-9.55-2.72-12-6.79-.04-.07-.08-.14-.12-.21z" fill="#fcd770"/></g><g><path d="m4 24.78c2.45-4.06 6.91-6.78 12-6.78v14l-12.12 7c-1.2-2.06-1.88-4.45-1.88-7 0-2.64.73-5.11 2-7.22z" fill="#ff826e"/></g><g><path d="m36 12.01c0 .66.07 1.32.19 1.96l.01.03h-32.2v-7c0-.55.45-1 1-1h33c-1.25 1.67-2 3.75-2 6.01z" fill="#b4dd7f"/></g><g><path d="m30 32c0 2.55-.68 4.94-1.88 7l-12.12-7v-14c7.73 0 14 6.27 14 14z" fill="#69d6f4"/></g><g><path d="m49 36 2 6h-3-3l2-6z" fill="#fcd770"/></g><g><path d="m49.94 33.17-.94 2.83h-2l-.94-2.83 1.94-1.17z" fill="#ffc729"/></g><g><path d="m43 35 3.06-1.83.94 2.83-2 6h-11c0-5.21 3.3-9.78 8.1-11.49z" fill="#ff826e"/></g><g><path d="m49.94 33.17 3.06 1.83.9-4.49c4.8 1.71 8.1 6.28 8.1 11.49h-11l-2-6z" fill="#ff826e"/></g><g><path d="m53.9 30.51-.9 4.49-3.06-1.83-1.94-1.17 4-2 .19.04c.59.12 1.16.28 1.71.47z" fill="#fc6e51"/></g><g><path d="m48 32-1.94 1.17-3.06 1.83-.9-4.49c.55-.19 1.12-.35 1.71-.47l.19-.04z" fill="#fc6e51"/></g><g><path d="m59.81 13.97-.6 3c-.55-.6-1.34-.97-2.21-.97h-1v-3-3h-13c-1.66 0-3 1.34-3 3v3h-1c-.87 0-1.66.37-2.21.97l-.59-2.97-.01-.03c-.12-.64-.19-1.3-.19-1.96 0-2.26.75-4.34 2-6.01.29-.38.6-.74.93-1.07 1.81-1.81 4.31-2.93 7.08-2.93h3.98c5.53 0 10.01 4.48 10.01 10.01 0 .66-.07 1.32-.19 1.96z" fill="#656d78"/></g><g><path d="m57 16c.87 0 1.66.37 2.21.97.49.53.79 1.24.79 2.03 0 .83-.34 1.58-.88 2.12s-1.29.88-2.12.88h-1v-6z" fill="#f0d0b4"/></g><g><path d="m50 28c.44 0 .88-.05 1.29-.14l.71 2.14-4 2-4-2 .71-2.14c.41.09.85.14 1.29.14z" fill="#f0d0b4"/></g><g><path d="m56 16v6c0 2.87-2.02 5.27-4.71 5.86-.41.09-.85.14-1.29.14h-4c-.44 0-.88-.05-1.29-.14-2.69-.59-4.71-2.99-4.71-5.86v-6-3c0-1.66 1.34-3 3-3h13v3z" fill="#f0d0b4"/></g><g><path d="m40 16v6h-1c-.83 0-1.58-.34-2.12-.88s-.88-1.29-.88-2.12c0-.79.3-1.5.79-2.03.55-.6 1.34-.97 2.21-.97z" fill="#f0d0b4"/></g></g><g><circle cx="44" cy="16" r="1"/><circle cx="52" cy="16" r="1"/><path d="m45 25h4c2.206 0 4-1.794 4-4h-2c0 1.103-.897 2-2 2h-4z"/><path d="m52.772 29.152-.214-.643c2.298-.906 4-2.992 4.363-5.509h.079c2.206 0 4-1.794 4-4 0-.85-.27-1.635-.724-2.283l.51-2.549c.142-.709.214-1.436.214-2.159 0-6.071-4.938-11.009-11.009-11.009h-3.982c-3.41 0-6.462 1.558-8.483 4h-32.526c-1.103 0-2 .897-2 2v17.548c-1.265 2.199-2 4.739-2 7.452s.735 5.253 2 7.452v21.548c0 1.103.897 2 2 2h58v-21c0-6.139-4.281-11.473-10.228-12.848zm8.183 11.848h-9.234l-1.667-5 .445-1.334 3.203 1.922.936-4.68c3.511 1.688 5.961 5.134 6.317 9.092zm-14.567 0 1.333-4h.558l1.333 4zm-.465-8.92-2.221 1.332-.442-2.212c.2-.055.403-.104.608-.148zm6.209-1.028c.205.044.407.095.608.15l-.442 2.21-2.221-1.332zm-3.853 3.948h-.558l-.463-1.389.742-.445.742.445zm-6.918-3.096.937 4.684 3.203-1.922.445 1.334-1.667 5h-9.234c.356-3.958 2.804-7.407 6.316-9.096zm9.416-2.411-2.777 1.389-2.777-1.389.175-.524c.199.018.399.031.602.031h4c.203 0 .403-.013.602-.031zm6.223-8.493v-4c1.103 0 2 .897 2 2s-.897 2-2 2zm-10.991-18h3.982c4.967 0 9.009 4.041 9.009 9.009 0 .593-.059 1.187-.175 1.767l-.306 1.528c-.469-.194-.981-.304-1.519-.304v-2h-2v9c0 2.757-2.243 5-5 5h-4c-2.757 0-5-2.243-5-5v-9c0-1.103.897-2 2-2v-2c-2.206 0-4 1.794-4 4v2c-.538 0-1.05.11-1.52.304l-.306-1.528c-.115-.581-.174-1.174-.174-1.767 0-4.968 4.042-9.009 9.009-9.009zm-7.009 18c-1.103 0-2-.897-2-2s.897-2 2-2zm-2.782-14c-.773 1.505-1.218 3.204-1.218 5.009 0 .331.019.661.049.991h-30.049v-6zm-21.218 12.051v12.372l-10.711 6.183c-.817-1.7-1.289-3.597-1.289-5.606 0-6.83 5.299-12.435 12-12.949zm1 14.104 10.718 6.188c-2.346 3.412-6.273 5.657-10.718 5.657s-8.372-2.245-10.718-5.658zm11.711 4.451-10.711-6.184v-12.371c6.701.514 12 6.119 12 12.949 0 2.009-.472 3.906-1.289 5.606zm-22.711 23.394v-18.836c2.742 2.965 6.652 4.836 11 4.836 8.271 0 15-6.729 15-15s-6.729-15-15-15c-4.348 0-8.258 1.871-11 4.836v-6.836h30.38l.343 1.717c-.453.648-.723 1.433-.723 2.283 0 2.206 1.794 4 4 4h.08c.363 2.517 2.065 4.603 4.363 5.509l-.214.643c-5.948 1.375-10.229 6.71-10.229 12.848v1h14v2h-8v6h18v-6h-8v-2h12v18zm50-14v2h-14v-2z"/><path d="m45.5 6.646h2v6.708h-2z" transform="matrix(.894 -.447 .447 .894 .437 21.851)"/><path d="m50.5 6.646h2v6.708h-2z" transform="matrix(.894 -.447 .447 .894 .965 24.087)"/><path d="m7 9h2v2h-2z"/><path d="m11 9h2v2h-2z"/><path d="m15 9h2v2h-2z"/><path d="m39 59h18v-6h-18zm2-4h14v2h-14z"/><path d="m9 57h2v2h-2z"/><path d="m13 57h16v2h-16z"/><path d="m9 53h2v2h-2z"/><path d="m13 53h20v2h-20z"/><path d="m9 49h2v2h-2z"/><path d="m13 49h6v2h-6z"/><path d="m21 49h6v2h-6z"/></g></g></svg>